HIERARCHY
ROOT Hips
{
	OFFSET 0.000000 71.427986 0.000000
	CHANNELS 6 Xposition Yposition Zposition Xrotation Yrotation Zrotation
	JOINT Pelvis
	{
		OFFSET 0.000000 0.000000 0.000000
		CHANNELS 3 Xrotation Yrotation Zrotation
		JOINT LeftUpLeg
		{
			OFFSET 6.797100 -2.508499 -1.318700
			CHANNELS 3 Xrotation Yrotation Zrotation
			JOINT LeftLeg
			{
				OFFSET 0.069008 -29.241863 0.690200
				CHANNELS 3 Xrotation Yrotation Zrotation
				JOINT LeftFoot
				{
					OFFSET -0.069008 -29.568123 -0.266800
					CHANNELS 3 Xrotation Yrotation Zrotation
					JOINT LeftToeBase
					{
						OFFSET 3.145500 -8.631000 16.059900
						CHANNELS 3 Xrotation Yrotation Zrotation
						End Site
						{
							OFFSET 0.000000 18.501587 0.000000
						}
					}
				}
			}
			JOINT Left_ShortSleeve
			{
				OFFSET 0.265923 -10.480953 1.153800
				CHANNELS 3 Xrotation Yrotation Zrotation
				End Site
				{
					OFFSET 1.725763 19.823879 0.000000
				}
			}
		}
		JOINT RightUpLeg
		{
			OFFSET -6.797100 -2.508499 -1.318700
			CHANNELS 3 Xrotation Yrotation Zrotation
			JOINT RightLeg
			{
				OFFSET -0.082453 -29.241932 0.688000
				CHANNELS 3 Xrotation Yrotation Zrotation
				JOINT RightFoot
				{
					OFFSET 0.082453 -29.568058 -0.264600
					CHANNELS 3 Xrotation Yrotation Zrotation
					JOINT RightToeBase
					{
						OFFSET -3.115300 -8.682800 16.113400
						CHANNELS 3 Xrotation Yrotation Zrotation
						End Site
						{
							OFFSET 0.000000 18.567114 0.000000
						}
					}
				}
			}
			JOINT Right_ShortSleeve
			{
				OFFSET -0.265923 -10.480953 1.153800
				CHANNELS 3 Xrotation Yrotation Zrotation
				End Site
				{
					OFFSET -1.725766 19.823910 0.000000
				}
			}
		}
	}
	JOINT Spine
	{
		OFFSET 0.000000 13.368103 0.470500
		CHANNELS 3 Xrotation Yrotation Zrotation
		JOINT Spine1
		{
			OFFSET 0.147000 13.837402 0.538800
			CHANNELS 3 Xrotation Yrotation Zrotation
			JOINT Spine2
			{
				OFFSET 0.168000 16.242897 -1.435500
				CHANNELS 3 Xrotation Yrotation Zrotation
				JOINT Neck
				{
					OFFSET 0.217200 18.631500 -1.679100
					CHANNELS 3 Xrotation Yrotation Zrotation
					JOINT Head
					{
						OFFSET 0.000000 6.599396 1.385900
						CHANNELS 3 Xrotation Yrotation Zrotation
						JOINT Hat
						{
							OFFSET -0.532200 27.220596 -10.096100
							CHANNELS 3 Xrotation Yrotation Zrotation
							End Site
							{
								OFFSET 0.000000 22.029861 0.000000
							}
						}
						JOINT HairD
						{
							OFFSET -10.777400 17.437393 -1.325900
							CHANNELS 3 Xrotation Yrotation Zrotation
							JOINT HairD1
							{
								OFFSET -3.290299 -11.051193 1.062200
								CHANNELS 3 Xrotation Yrotation Zrotation
								End Site
								{
									OFFSET 0.000000 11.579437 0.000000
								}
							}
						}
						JOINT HairB
						{
							OFFSET -10.777400 17.437393 1.467900
							CHANNELS 3 Xrotation Yrotation Zrotation
							JOINT HairB1
							{
								OFFSET -1.561200 -12.956299 3.590200
								CHANNELS 3 Xrotation Yrotation Zrotation
								End Site
								{
									OFFSET 0.000000 13.534866 0.000000
								}
							}
						}
						JOINT HairA
						{
							OFFSET 9.713100 17.437393 1.467900
							CHANNELS 3 Xrotation Yrotation Zrotation
							JOINT HairA1
							{
								OFFSET 1.561200 -12.956299 3.590200
								CHANNELS 3 Xrotation Yrotation Zrotation
								End Site
								{
									OFFSET 0.000000 13.534866 0.000000
								}
							}
						}
						JOINT HairC
						{
							OFFSET 9.713100 17.437393 -1.325900
							CHANNELS 3 Xrotation Yrotation Zrotation
							JOINT HairC1
							{
								OFFSET 3.290300 -11.051193 1.062200
								CHANNELS 3 Xrotation Yrotation Zrotation
								End Site
								{
									OFFSET 0.000000 11.579437 0.000000
								}
							}
						}
					}
				}
				JOINT LeftShoulder
				{
					OFFSET 5.101800 15.108002 -2.763700
					CHANNELS 3 Xrotation Yrotation Zrotation
					JOINT LeftArm
					{
						OFFSET 9.825497 2.506317 -1.597400
						CHANNELS 3 Xrotation Yrotation Zrotation
						JOINT LeftForeArm
						{
							OFFSET 21.966244 0.000000 0.000000
							CHANNELS 3 Xrotation Yrotation Zrotation
							JOINT LeftHand
							{
								OFFSET 33.879036 0.000000 0.000000
								CHANNELS 3 Xrotation Yrotation Zrotation
								JOINT LeftHandThumb1
								{
									OFFSET 6.715286 -2.359680 3.363841
									CHANNELS 3 Xrotation Yrotation Zrotation
									JOINT LeftHandThumb2
									{
										OFFSET 2.507072 -1.447464 1.447461
										CHANNELS 3 Xrotation Yrotation Zrotation
										JOINT LeftHandThumb3
										{
											OFFSET 2.898338 -1.673355 1.673357
											CHANNELS 3 Xrotation Yrotation Zrotation
											End Site
											{
												OFFSET -0.295959 3.727692 -0.131651
											}
										}
									}
								}
								JOINT LeftHandIndex1
								{
									OFFSET 14.190811 -0.254547 3.840278
									CHANNELS 3 Xrotation Yrotation Zrotation
									JOINT LeftHandIndex2
									{
										OFFSET 3.551727 0.000000 -0.000000
										CHANNELS 3 Xrotation Yrotation Zrotation
										JOINT LeftHandIndex3
										{
											OFFSET 2.894196 0.000000 0.000000
											CHANNELS 3 Xrotation Yrotation Zrotation
											End Site
											{
												OFFSET -1.000603 2.690872 0.366626
											}
										}
									}
								}
								JOINT LeftHandMiddle1
								{
									OFFSET 13.776489 0.000000 0.000000
									CHANNELS 3 Xrotation Yrotation Zrotation
									JOINT LeftHandMiddle2
									{
										OFFSET 3.438232 0.000000 0.000000
										CHANNELS 3 Xrotation Yrotation Zrotation
										JOINT LeftHandMiddle3
										{
											OFFSET 3.691551 0.000000 0.000000
											CHANNELS 3 Xrotation Yrotation Zrotation
											End Site
											{
												OFFSET -1.082298 3.499527 0.457670
											}
										}
									}
								}
								JOINT LeftHandRing1
								{
									OFFSET 13.966164 -0.268127 -3.067488
									CHANNELS 3 Xrotation Yrotation Zrotation
									JOINT LeftHandRing2
									{
										OFFSET 3.162567 0.000000 0.000000
										CHANNELS 3 Xrotation Yrotation Zrotation
										JOINT LeftHandRing3
										{
											OFFSET 3.324348 0.000000 0.000000
											CHANNELS 3 Xrotation Yrotation Zrotation
											End Site
											{
												OFFSET -0.861900 3.184998 0.405154
											}
										}
									}
								}
								JOINT LeftHandPinky1
								{
									OFFSET 13.131393 -0.168503 -5.746925
									CHANNELS 3 Xrotation Yrotation Zrotation
									JOINT LeftHandPinky2
									{
										OFFSET 2.849182 0.000000 0.000000
										CHANNELS 3 Xrotation Yrotation Zrotation
										JOINT LeftHandPinky3
										{
											OFFSET 2.805038 0.000000 0.000000
											CHANNELS 3 Xrotation Yrotation Zrotation
											End Site
											{
												OFFSET -0.882500 2.642609 0.325652
											}
										}
									}
								}
							}
							JOINT Left_Sleeve
							{
								OFFSET 6.592125 -0.646545 0.805568
								CHANNELS 3 Xrotation Yrotation Zrotation
								End Site
								{
									OFFSET -0.000179 20.275787 -0.000000
								}
							}
						}
					}
				}
				JOINT RightShoulder
				{
					OFFSET -5.731700 15.108002 -2.763700
					CHANNELS 3 Xrotation Yrotation Zrotation
					JOINT RightArm
					{
						OFFSET -9.825497 2.506317 -1.597400
						CHANNELS 3 Xrotation Yrotation Zrotation
						JOINT RightForeArm
						{
							OFFSET -21.966242 0.000000 0.000000
							CHANNELS 3 Xrotation Yrotation Zrotation
							JOINT RightHand
							{
								OFFSET -33.879032 0.000000 0.000000
								CHANNELS 3 Xrotation Yrotation Zrotation
								JOINT RightHandThumb1
								{
									OFFSET -6.715286 -2.359680 3.363841
									CHANNELS 3 Xrotation Yrotation Zrotation
									JOINT RightHandThumb2
									{
										OFFSET -2.507072 -1.447464 1.447461
										CHANNELS 3 Xrotation Yrotation Zrotation
										JOINT RightHandThumb3
										{
											OFFSET -2.898338 -1.673355 1.673357
											CHANNELS 3 Xrotation Yrotation Zrotation
											End Site
											{
												OFFSET 0.295959 3.727692 -0.131651
											}
										}
									}
								}
								JOINT RightHandIndex1
								{
									OFFSET -14.190811 -0.254547 3.840278
									CHANNELS 3 Xrotation Yrotation Zrotation
									JOINT RightHandIndex2
									{
										OFFSET -3.551727 0.000000 -0.000000
										CHANNELS 3 Xrotation Yrotation Zrotation
										JOINT RightHandIndex3
										{
											OFFSET -2.894196 0.000000 0.000000
											CHANNELS 3 Xrotation Yrotation Zrotation
											End Site
											{
												OFFSET 1.000603 2.690872 0.366626
											}
										}
									}
								}
								JOINT RightHandMiddle1
								{
									OFFSET -13.776489 0.000000 0.000000
									CHANNELS 3 Xrotation Yrotation Zrotation
									JOINT RightHandMiddle2
									{
										OFFSET -3.438232 0.000000 0.000000
										CHANNELS 3 Xrotation Yrotation Zrotation
										JOINT RightHandMiddle3
										{
											OFFSET -3.691551 0.000000 0.000000
											CHANNELS 3 Xrotation Yrotation Zrotation
											End Site
											{
												OFFSET 1.082298 3.499527 0.457670
											}
										}
									}
								}
								JOINT RightHandRing1
								{
									OFFSET -13.966164 -0.268127 -3.067488
									CHANNELS 3 Xrotation Yrotation Zrotation
									JOINT RightHandRing2
									{
										OFFSET -3.162567 0.000000 0.000000
										CHANNELS 3 Xrotation Yrotation Zrotation
										JOINT RightHandRing3
										{
											OFFSET -3.324348 0.000000 0.000000
											CHANNELS 3 Xrotation Yrotation Zrotation
											End Site
											{
												OFFSET 0.861900 3.184998 0.405154
											}
										}
									}
								}
								JOINT RightHandPinky1
								{
									OFFSET -13.131393 -0.168503 -5.746925
									CHANNELS 3 Xrotation Yrotation Zrotation
									JOINT RightHandPinky2
									{
										OFFSET -2.849182 0.000000 0.000000
										CHANNELS 3 Xrotation Yrotation Zrotation
										JOINT RightHandPinky3
										{
											OFFSET -2.805038 0.000000 0.000000
											CHANNELS 3 Xrotation Yrotation Zrotation
											End Site
											{
												OFFSET 0.882500 2.642609 0.325652
											}
										}
									}
								}
							}
							JOINT Right_Sleeve
							{
								OFFSET -6.592125 -0.646545 0.805568
								CHANNELS 3 Xrotation Yrotation Zrotation
								End Site
								{
									OFFSET 0.000179 20.275787 -0.000000
								}
							}
						}
					}
				}
				JOINT Bind_Right_JacketString
				{
					OFFSET -3.534800 11.969597 7.200700
					CHANNELS 3 Xrotation Yrotation Zrotation
					JOINT Bind_Right_JacketString1
					{
						OFFSET -0.319900 -6.102600 2.794100
						CHANNELS 3 Xrotation Yrotation Zrotation
						End Site
						{
							OFFSET 0.000000 6.719452 0.000000
						}
					}
				}
				JOINT Bind_Left_JacketString
				{
					OFFSET 2.904800 11.969597 7.200700
					CHANNELS 3 Xrotation Yrotation Zrotation
					JOINT Bind_Left_JacketString1
					{
						OFFSET 0.364800 -5.904503 3.186800
						CHANNELS 3 Xrotation Yrotation Zrotation
						End Site
						{
							OFFSET 0.000000 6.719513 0.000000
						}
					}
				}
				JOINT HairE
				{
					OFFSET 5.915200 17.612701 -11.592200
					CHANNELS 3 Xrotation Yrotation Zrotation
					JOINT HairE1
					{
						OFFSET 0.289200 -7.171898 -1.284500
						CHANNELS 3 Xrotation Yrotation Zrotation
						End Site
						{
							OFFSET 0.000000 7.291756 0.000000
						}
					}
				}
				JOINT HairF
				{
					OFFSET -0.864800 17.612701 -11.592200
					CHANNELS 3 Xrotation Yrotation Zrotation
					JOINT HairF1
					{
						OFFSET 0.000000 -14.087097 -2.127501
						CHANNELS 3 Xrotation Yrotation Zrotation
						End Site
						{
							OFFSET 0.000000 14.246841 0.000000
						}
					}
				}
				JOINT HairG
				{
					OFFSET -8.087700 17.612701 -11.592200
					CHANNELS 3 Xrotation Yrotation Zrotation
					JOINT HairG1
					{
						OFFSET -0.293600 -6.081398 -0.910100
						CHANNELS 3 Xrotation Yrotation Zrotation
						End Site
						{
							OFFSET 0.000000 6.156120 0.000000
						}
					}
				}
			}
		}
	}
	JOINT Pouch
	{
		OFFSET 0.000000 4.394501 10.847300
		CHANNELS 3 Xrotation Yrotation Zrotation
		End Site
		{
			OFFSET 0.000000 21.880577 0.000000
		}
	}
	JOINT Bag
	{
		OFFSET -13.229000 4.813004 -0.593300
		CHANNELS 3 Xrotation Yrotation Zrotation
		End Site
		{
			OFFSET 0.000000 21.880577 0.000000
		}
	}
	JOINT OccupyGuyFacialAnim_Joint
	{
		OFFSET 1.000000 -70.206398 -1.655000
		CHANNELS 3 Xrotation Yrotation Zrotation
		End Site
		{
			OFFSET 0.000000 21.880577 0.000000
		}
	}
}
MOTION
Frames: 4
Frame Time: 0.033333
-2.061707 70.453751 6.893013 -1.346980 -0.318706 2.674227 0.000000 -0.000000 -0.000000 4.352646 7.807097 3.768918 5.492938 4.134630 1.398563 -5.570134 9.453002 -9.000749 -0.000000 0.000000 -0.000000 0.000000 -0.000000 0.000001 1.711476 -8.948805 -6.232370 15.728199 -8.864430 1.305138 -15.119921 -7.519134 4.880167 0.000000 0.000001 0.000000 -0.000000 0.000001 -0.000000 -1.701449 -3.336465 -1.555007 -1.582119 -0.849680 -0.219802 -1.593172 -0.828704 -0.190243 1.690162 -0.632894 1.200557 22.085815 -4.744465 -1.478893 0.000000 0.000000 0.000000 0.000000 0.000000 0.000000 0.000000 0.000000 0.000000 0.000000 0.000000 0.000000 -0.000002 0.000000 0.000000 0.000000 0.000000 0.000000 -0.000002 0.000000 0.000000 0.000000 0.000000 0.000000 0.000000 0.000000 0.000000 2.635525 -3.204260 -6.030736 -13.305595 -7.066288 -70.020893 -0.000006 -23.897819 -0.000023 19.806032 -8.071200 -12.115313 -15.284611 0.509356 0.187994 15.352527 21.566187 9.304681 0.000002 -0.000002 0.000003 -0.821242 -0.232553 -32.761108 0.933748 3.174831 -32.770633 0.000003 -0.000002 -0.000002 0.915208 5.601979 -43.856303 0.903274 3.127114 -32.216804 -0.000001 0.000001 0.000001 3.687256 7.939176 -54.672335 0.910600 3.138666 -32.350272 -0.000001 -0.000000 -0.000003 4.778577 17.555961 -58.539161 0.863515 3.063182 -31.480004 -0.000001 0.000001 0.000003 0.000002 0.000001 -0.000001 1.597369 1.829298 2.494612 -4.463008 18.773658 58.713296 0.000040 59.475484 -0.000054 3.937846 16.635283 3.091855 -1.354164 9.112673 0.369759 16.729276 -22.224338 -5.263151 -0.000001 -0.000001 -0.000000 0.477563 -0.520821 36.530112 1.971129 -3.805914 54.747788 -0.000000 0.000002 -0.000001 -0.319876 -4.094187 49.139635 2.054973 -3.863670 56.001165 -0.000002 -0.000004 -0.000001 -0.788983 -4.327370 57.796180 1.295807 -3.225280 43.768446 -0.000001 -0.000003 -0.000002 -1.154679 -3.764872 53.791455 2.403862 -4.076805 61.036811 -0.000000 0.000000 -0.000001 0.000003 0.000001 -0.000001 0.000000 -0.000000 -0.000000 -0.000000 -0.000000 0.000000 0.000000 -0.000000 -0.000000 0.000000 -0.000000 -0.000000 0.000000 -0.000000 -0.000000 -0.000000 -0.000000 0.000000 0.000000 -0.000000 -0.000000 0.000000 -0.000000 -0.000000 0.000000 -0.000000 -0.000000 -0.000000 -0.000000 0.000000 0.000000 -0.000000 -0.000000 0.000000 -0.000000 -0.000000 0.000000 -0.000000 -0.000000 
-2.128299 70.458450 6.825974 -1.897335 -0.406321 2.609393 0.000000 0.000000 -0.000000 4.472447 7.834982 3.946392 6.261038 4.133075 1.398584 -5.830012 9.477588 -9.098792 0.000000 0.000001 0.000000 0.000000 -0.000000 -0.000000 2.169599 -8.988671 -6.137988 15.839770 -8.753525 1.304621 -15.163582 -7.508653 4.786473 -0.000000 -0.000001 0.000000 -0.000000 -0.000001 -0.000000 -1.767443 -3.221107 -1.448142 -1.729323 -0.815849 -0.196386 -1.740228 -0.793818 -0.166593 1.501004 -0.585952 1.340270 22.696498 -3.918574 -1.974783 0.000000 0.000001 -0.000000 0.000000 0.000001 -0.000000 0.000000 0.000001 -0.000000 0.000000 0.000001 -0.000000 0.000000 0.000001 0.000000 0.000000 0.000001 -0.000000 0.000000 0.000001 0.000000 0.000000 0.000001 -0.000000 0.000000 0.000001 -0.000000 2.633807 -3.109206 -6.308427 -13.141116 -7.147877 -70.388166 0.000012 -23.830950 0.000023 19.945097 -8.338271 -12.020673 -15.240290 0.623572 0.227335 15.351921 21.716617 9.324169 0.000002 0.000003 -0.000002 -0.804143 -0.197676 -33.230182 0.956822 3.210348 -33.185055 0.000003 0.000003 0.000000 0.939849 5.639783 -44.297561 0.927480 3.165093 -32.657136 -0.000000 0.000003 -0.000001 3.759557 7.976110 -55.117998 0.934806 3.176462 -32.789481 0.000001 -0.000004 0.000001 4.871667 17.613921 -58.995561 0.887182 3.101450 -31.920199 -0.000000 -0.000001 0.000001 0.000002 -0.000004 0.000000 1.530908 1.729121 2.774570 -4.153629 18.680340 57.962522 -0.000007 58.621219 0.000004 4.298583 16.789824 2.823591 -1.370005 9.158379 0.390473 16.780154 -22.292197 -5.214716 0.000005 -0.000001 0.000001 0.451903 -0.506855 36.407459 1.960810 -3.798610 54.592029 -0.000000 0.000002 0.000001 -0.372083 -4.032439 48.872090 2.024685 -3.843127 55.550724 0.000001 0.000001 -0.000001 -0.821502 -4.282991 57.474608 1.276127 -3.204652 43.417860 -0.000000 0.000001 -0.000002 -1.119082 -3.794522 53.434875 2.378301 -4.062598 60.676832 0.000001 0.000002 0.000001 0.000002 -0.000001 0.000001 0.000001 0.000000 0.000000 0.000001 0.000000 -0.000000 0.000001 0.000000 0.000000 0.000001 0.000000 0.000000 0.000001 0.000000 0.000000 0.000001 0.000000 -0.000000 0.000001 0.000000 0.000000 0.000001 0.000000 0.000000 0.000001 0.000000 0.000000 0.000001 0.000000 -0.000000 0.000000 0.000000 -0.000000 0.000000 0.000000 -0.000000 0.000000 0.000000 -0.000000 
-2.188838 70.464874 6.772813 -2.454848 -0.346764 2.550566 0.000000 0.000000 -0.000000 4.719408 7.727654 4.113678 6.767105 4.131333 1.398548 -5.977443 9.495733 -9.185692 0.000000 0.000001 -0.000000 -0.000000 0.000000 -0.000000 2.710828 -9.038739 -6.009793 15.874891 -8.792582 1.304276 -15.190313 -7.504752 4.729705 0.000000 -0.000000 -0.000000 -0.000000 0.000002 0.000000 -1.821000 -3.138771 -1.340009 -1.852638 -0.800864 -0.163804 -1.863458 -0.778819 -0.132876 1.329670 -0.538812 1.498986 22.801664 -2.902966 -2.414824 0.000003 -0.000000 -0.000000 0.000003 -0.000000 -0.000000 0.000003 -0.000000 0.000000 0.000003 -0.000000 -0.000000 0.000002 -0.000000 -0.000000 0.000003 -0.000000 -0.000000 0.000002 -0.000000 -0.000000 0.000003 -0.000000 -0.000000 0.000003 -0.000000 -0.000000 2.649307 -2.765149 -6.771129 -13.025009 -7.158058 -70.559679 -0.000006 -23.679007 -0.000011 20.093547 -8.580186 -12.068600 -15.215937 0.683961 0.246436 15.351596 21.795817 9.334424 0.000001 0.000007 -0.000002 -0.795186 -0.179634 -33.477274 0.969082 3.228999 -33.403324 0.000002 -0.000001 -0.000004 0.952941 5.659666 -44.529965 0.940312 3.185012 -32.889103 0.000002 -0.000002 -0.000001 3.797675 7.995141 -55.352761 0.947635 3.196309 -33.020816 -0.000002 0.000002 0.000000 4.920809 17.644122 -59.236141 0.899759 3.121524 -32.152033 -0.000000 0.000000 -0.000001 0.000003 0.000001 -0.000001 1.468711 1.648980 3.079295 -3.789847 18.552491 57.209019 0.000009 57.415964 -0.000018 4.963863 16.860904 2.259150 -1.422637 9.290319 0.442916 16.773363 -22.283139 -5.221235 0.000002 -0.000001 -0.000000 0.399093 -0.433462 35.480319 1.889656 -3.747117 53.510707 -0.000001 -0.000001 0.000002 -0.455349 -3.879527 47.632223 1.939451 -3.783379 54.269026 -0.000000 -0.000001 0.000001 -0.839147 -4.183309 56.291492 1.207212 -3.130324 42.170360 0.000001 0.000000 0.000000 -1.019205 -3.870553 52.270157 2.294788 -4.014665 59.491030 -0.000001 -0.000000 0.000000 0.000003 0.000001 -0.000001 0.000000 0.000000 -0.000000 -0.000001 0.000000 0.000000 0.000000 0.000000 -0.000000 0.000000 0.000000 -0.000000 0.000000 0.000000 -0.000000 -0.000001 0.000000 -0.000000 0.000000 0.000000 -0.000000 0.000000 0.000000 -0.000000 0.000000 0.000000 -0.000000 -0.000001 0.000000 -0.000000 0.000000 0.000000 -0.000000 0.000000 0.000000 -0.000000 0.000000 0.000000 -0.000000 
-2.237608 70.474152 6.732919 -3.037507 -0.157109 2.500783 0.000000 -0.000000 -0.000000 5.217287 7.512850 4.242386 6.805765 4.129831 1.398275 -5.955653 9.498625 -9.234443 0.000000 0.000002 -0.000000 0.000000 0.000001 -0.000000 3.353164 -9.100575 -5.859069 15.826047 -8.961455 1.304082 -15.193317 -7.502830 4.708377 0.000000 -0.000000 0.000000 -0.000000 0.000001 -0.000000 -1.852397 -3.067406 -1.194669 -1.963912 -0.794792 -0.108816 -1.974647 -0.770344 -0.077202 1.177779 -0.495515 1.658734 22.668285 -1.839673 -2.828768 0.000002 0.000000 0.000000 0.000002 0.000000 0.000000 0.000002 0.000000 0.000000 0.000002 0.000000 0.000000 0.000001 0.000000 -0.000000 0.000002 0.000000 0.000000 0.000001 0.000000 -0.000000 0.000002 0.000000 0.000000 0.000002 0.000000 0.000000 2.679600 -2.082794 -7.619771 -13.091628 -7.151380 -70.445396 -0.000007 -23.401201 -0.000015 20.287339 -8.811438 -12.597115 -15.214888 0.686163 0.246937 15.351566 21.799000 9.334831 0.000000 -0.000002 0.000002 -0.793936 -0.179138 -33.489773 0.969720 3.229952 -33.414542 0.000003 0.000002 -0.000002 0.953585 5.660680 -44.541842 0.940989 3.186033 -32.900967 0.000000 -0.000001 0.000002 3.798989 7.995689 -55.364745 0.948300 3.197331 -33.032632 0.000002 0.000003 0.000001 4.921807 17.644728 -59.248408 0.900408 3.122555 -32.163880 -0.000000 -0.000003 0.000001 0.000002 -0.000002 0.000000 1.389652 1.632942 3.486587 -3.341000 18.204440 56.303667 -0.000025 56.074477 0.000017 5.827388 16.897171 1.418640 -1.503392 9.495586 0.527053 16.690218 -22.172220 -5.300201 -0.000000 -0.000001 -0.000000 0.312863 -0.260721 33.856865 1.720882 -3.616441 50.882826 0.000000 0.000004 -0.000001 -0.575402 -3.638483 45.724097 1.811053 -3.687799 52.298373 0.000001 0.000002 -0.000002 -0.862320 -4.030101 54.465028 1.101517 -3.009648 40.196568 -0.000000 -0.000004 -0.000003 -0.913464 -3.937323 50.325353 2.155554 -3.929507 57.481424 -0.000002 -0.000002 -0.000003 0.000004 -0.000001 0.000000 -0.000001 -0.000000 -0.000000 -0.000002 0.000000 0.000000 -0.000001 -0.000000 -0.000000 -0.000001 -0.000000 -0.000000 -0.000001 -0.000000 -0.000000 -0.000002 0.000000 -0.000000 -0.000001 -0.000000 -0.000000 -0.000001 -0.000000 -0.000000 -0.000001 -0.000000 -0.000000 -0.000002 0.000000 -0.000000 0.000000 -0.000000 -0.000000 0.000000 -0.000000 -0.000000 0.000000 -0.000000 -0.000000 
